<mxfile host="Electron" modified="2024-05-17T17:15:19.814Z" agent="Mozilla/5.0 (Windows NT 10.0; Win64; x64) AppleWebKit/537.36 (KHTML, like Gecko) draw.io/24.4.0 Chrome/120.0.6099.109 Electron/28.1.0 Safari/537.36" etag="EiO0y24hf9TaJEWsD4nZ" version="24.4.0" type="device">
  <diagram name="Page-1" id="htIglbnu7Jkr9Wx-wAEi">
    <mxGraphModel dx="2261" dy="844" grid="1" gridSize="10" guides="1" tooltips="1" connect="1" arrows="1" fold="1" page="1" pageScale="1" pageWidth="827" pageHeight="1169" math="0" shadow="0">
      <root>
        <mxCell id="0" />
        <mxCell id="1" parent="0" />
        <mxCell id="MzCPjj2sB09VvqTOoRSp-1" value="role" style="swimlane;fontStyle=0;childLayout=stackLayout;horizontal=1;startSize=30;horizontalStack=0;resizeParent=1;resizeParentMax=0;resizeLast=0;collapsible=1;marginBottom=0;whiteSpace=wrap;html=1;" vertex="1" parent="1">
          <mxGeometry x="-280" y="80" width="140" height="90" as="geometry" />
        </mxCell>
        <mxCell id="MzCPjj2sB09VvqTOoRSp-2" value="&lt;u&gt;id (int)&lt;/u&gt;" style="text;strokeColor=none;fillColor=none;align=left;verticalAlign=middle;spacingLeft=4;spacingRight=4;overflow=hidden;points=[[0,0.5],[1,0.5]];portConstraint=eastwest;rotatable=0;whiteSpace=wrap;html=1;" vertex="1" parent="MzCPjj2sB09VvqTOoRSp-1">
          <mxGeometry y="30" width="140" height="30" as="geometry" />
        </mxCell>
        <mxCell id="MzCPjj2sB09VvqTOoRSp-3" value="value (str)" style="text;strokeColor=none;fillColor=none;align=left;verticalAlign=middle;spacingLeft=4;spacingRight=4;overflow=hidden;points=[[0,0.5],[1,0.5]];portConstraint=eastwest;rotatable=0;whiteSpace=wrap;html=1;" vertex="1" parent="MzCPjj2sB09VvqTOoRSp-1">
          <mxGeometry y="60" width="140" height="30" as="geometry" />
        </mxCell>
        <mxCell id="MzCPjj2sB09VvqTOoRSp-5" value="user" style="swimlane;fontStyle=0;childLayout=stackLayout;horizontal=1;startSize=30;horizontalStack=0;resizeParent=1;resizeParentMax=0;resizeLast=0;collapsible=1;marginBottom=0;whiteSpace=wrap;html=1;" vertex="1" parent="1">
          <mxGeometry x="-540" y="150" width="140" height="330" as="geometry" />
        </mxCell>
        <mxCell id="MzCPjj2sB09VvqTOoRSp-6" value="&lt;u&gt;id&lt;/u&gt;&amp;nbsp;(int)" style="text;strokeColor=none;fillColor=none;align=left;verticalAlign=middle;spacingLeft=4;spacingRight=4;overflow=hidden;points=[[0,0.5],[1,0.5]];portConstraint=eastwest;rotatable=0;whiteSpace=wrap;html=1;" vertex="1" parent="MzCPjj2sB09VvqTOoRSp-5">
          <mxGeometry y="30" width="140" height="30" as="geometry" />
        </mxCell>
        <mxCell id="MzCPjj2sB09VvqTOoRSp-9" value="role_id (int)" style="text;strokeColor=none;fillColor=none;align=left;verticalAlign=middle;spacingLeft=4;spacingRight=4;overflow=hidden;points=[[0,0.5],[1,0.5]];portConstraint=eastwest;rotatable=0;whiteSpace=wrap;html=1;" vertex="1" parent="MzCPjj2sB09VvqTOoRSp-5">
          <mxGeometry y="60" width="140" height="30" as="geometry" />
        </mxCell>
        <mxCell id="MzCPjj2sB09VvqTOoRSp-57" value="group_id (int)" style="text;strokeColor=none;fillColor=none;align=left;verticalAlign=middle;spacingLeft=4;spacingRight=4;overflow=hidden;points=[[0,0.5],[1,0.5]];portConstraint=eastwest;rotatable=0;whiteSpace=wrap;html=1;" vertex="1" parent="MzCPjj2sB09VvqTOoRSp-5">
          <mxGeometry y="90" width="140" height="30" as="geometry" />
        </mxCell>
        <mxCell id="MzCPjj2sB09VvqTOoRSp-66" value="module_id (int)" style="text;strokeColor=none;fillColor=none;align=left;verticalAlign=middle;spacingLeft=4;spacingRight=4;overflow=hidden;points=[[0,0.5],[1,0.5]];portConstraint=eastwest;rotatable=0;whiteSpace=wrap;html=1;" vertex="1" parent="MzCPjj2sB09VvqTOoRSp-5">
          <mxGeometry y="120" width="140" height="30" as="geometry" />
        </mxCell>
        <mxCell id="MzCPjj2sB09VvqTOoRSp-7" value="first_name (str)" style="text;strokeColor=none;fillColor=none;align=left;verticalAlign=middle;spacingLeft=4;spacingRight=4;overflow=hidden;points=[[0,0.5],[1,0.5]];portConstraint=eastwest;rotatable=0;whiteSpace=wrap;html=1;" vertex="1" parent="MzCPjj2sB09VvqTOoRSp-5">
          <mxGeometry y="150" width="140" height="30" as="geometry" />
        </mxCell>
        <mxCell id="MzCPjj2sB09VvqTOoRSp-8" value="last_name (str)" style="text;strokeColor=none;fillColor=none;align=left;verticalAlign=middle;spacingLeft=4;spacingRight=4;overflow=hidden;points=[[0,0.5],[1,0.5]];portConstraint=eastwest;rotatable=0;whiteSpace=wrap;html=1;" vertex="1" parent="MzCPjj2sB09VvqTOoRSp-5">
          <mxGeometry y="180" width="140" height="30" as="geometry" />
        </mxCell>
        <mxCell id="MzCPjj2sB09VvqTOoRSp-10" value="email (str)" style="text;strokeColor=none;fillColor=none;align=left;verticalAlign=middle;spacingLeft=4;spacingRight=4;overflow=hidden;points=[[0,0.5],[1,0.5]];portConstraint=eastwest;rotatable=0;whiteSpace=wrap;html=1;" vertex="1" parent="MzCPjj2sB09VvqTOoRSp-5">
          <mxGeometry y="210" width="140" height="30" as="geometry" />
        </mxCell>
        <mxCell id="MzCPjj2sB09VvqTOoRSp-11" value="photo (bin)" style="text;strokeColor=none;fillColor=none;align=left;verticalAlign=middle;spacingLeft=4;spacingRight=4;overflow=hidden;points=[[0,0.5],[1,0.5]];portConstraint=eastwest;rotatable=0;whiteSpace=wrap;html=1;" vertex="1" parent="MzCPjj2sB09VvqTOoRSp-5">
          <mxGeometry y="240" width="140" height="30" as="geometry" />
        </mxCell>
        <mxCell id="MzCPjj2sB09VvqTOoRSp-43" value="password (str)" style="text;strokeColor=none;fillColor=none;align=left;verticalAlign=middle;spacingLeft=4;spacingRight=4;overflow=hidden;points=[[0,0.5],[1,0.5]];portConstraint=eastwest;rotatable=0;whiteSpace=wrap;html=1;" vertex="1" parent="MzCPjj2sB09VvqTOoRSp-5">
          <mxGeometry y="270" width="140" height="30" as="geometry" />
        </mxCell>
        <mxCell id="MzCPjj2sB09VvqTOoRSp-58" value="component_name (str)" style="text;strokeColor=none;fillColor=none;align=left;verticalAlign=middle;spacingLeft=4;spacingRight=4;overflow=hidden;points=[[0,0.5],[1,0.5]];portConstraint=eastwest;rotatable=0;whiteSpace=wrap;html=1;" vertex="1" parent="MzCPjj2sB09VvqTOoRSp-5">
          <mxGeometry y="300" width="140" height="30" as="geometry" />
        </mxCell>
        <mxCell id="MzCPjj2sB09VvqTOoRSp-12" style="edgeStyle=orthogonalEdgeStyle;rounded=0;orthogonalLoop=1;jettySize=auto;html=1;entryX=0;entryY=0.5;entryDx=0;entryDy=0;" edge="1" parent="1" source="MzCPjj2sB09VvqTOoRSp-9" target="MzCPjj2sB09VvqTOoRSp-2">
          <mxGeometry relative="1" as="geometry" />
        </mxCell>
        <mxCell id="MzCPjj2sB09VvqTOoRSp-14" value="module" style="swimlane;fontStyle=0;childLayout=stackLayout;horizontal=1;startSize=30;horizontalStack=0;resizeParent=1;resizeParentMax=0;resizeLast=0;collapsible=1;marginBottom=0;whiteSpace=wrap;html=1;" vertex="1" parent="1">
          <mxGeometry x="-350" y="270" width="140" height="90" as="geometry" />
        </mxCell>
        <mxCell id="MzCPjj2sB09VvqTOoRSp-15" value="&lt;u&gt;id&lt;/u&gt;&amp;nbsp;(int)" style="text;strokeColor=none;fillColor=none;align=left;verticalAlign=middle;spacingLeft=4;spacingRight=4;overflow=hidden;points=[[0,0.5],[1,0.5]];portConstraint=eastwest;rotatable=0;whiteSpace=wrap;html=1;" vertex="1" parent="MzCPjj2sB09VvqTOoRSp-14">
          <mxGeometry y="30" width="140" height="30" as="geometry" />
        </mxCell>
        <mxCell id="MzCPjj2sB09VvqTOoRSp-16" value="name (str)" style="text;strokeColor=none;fillColor=none;align=left;verticalAlign=middle;spacingLeft=4;spacingRight=4;overflow=hidden;points=[[0,0.5],[1,0.5]];portConstraint=eastwest;rotatable=0;whiteSpace=wrap;html=1;" vertex="1" parent="MzCPjj2sB09VvqTOoRSp-14">
          <mxGeometry y="60" width="140" height="30" as="geometry" />
        </mxCell>
        <mxCell id="MzCPjj2sB09VvqTOoRSp-21" value="component" style="swimlane;fontStyle=0;childLayout=stackLayout;horizontal=1;startSize=30;horizontalStack=0;resizeParent=1;resizeParentMax=0;resizeLast=0;collapsible=1;marginBottom=0;whiteSpace=wrap;html=1;" vertex="1" parent="1">
          <mxGeometry x="-350" y="390" width="140" height="150" as="geometry" />
        </mxCell>
        <mxCell id="MzCPjj2sB09VvqTOoRSp-22" value="&lt;u&gt;id&lt;/u&gt; (int)" style="text;strokeColor=none;fillColor=none;align=left;verticalAlign=middle;spacingLeft=4;spacingRight=4;overflow=hidden;points=[[0,0.5],[1,0.5]];portConstraint=eastwest;rotatable=0;whiteSpace=wrap;html=1;" vertex="1" parent="MzCPjj2sB09VvqTOoRSp-21">
          <mxGeometry y="30" width="140" height="30" as="geometry" />
        </mxCell>
        <mxCell id="MzCPjj2sB09VvqTOoRSp-68" value="module_id (int)" style="text;strokeColor=none;fillColor=none;align=left;verticalAlign=middle;spacingLeft=4;spacingRight=4;overflow=hidden;points=[[0,0.5],[1,0.5]];portConstraint=eastwest;rotatable=0;whiteSpace=wrap;html=1;" vertex="1" parent="MzCPjj2sB09VvqTOoRSp-21">
          <mxGeometry y="60" width="140" height="30" as="geometry" />
        </mxCell>
        <mxCell id="MzCPjj2sB09VvqTOoRSp-41" value="&lt;font color=&quot;#007fff&quot;&gt;tutor_id (int)&lt;/font&gt;" style="text;strokeColor=none;fillColor=none;align=left;verticalAlign=middle;spacingLeft=4;spacingRight=4;overflow=hidden;points=[[0,0.5],[1,0.5]];portConstraint=eastwest;rotatable=0;whiteSpace=wrap;html=1;" vertex="1" parent="MzCPjj2sB09VvqTOoRSp-21">
          <mxGeometry y="90" width="140" height="30" as="geometry" />
        </mxCell>
        <mxCell id="MzCPjj2sB09VvqTOoRSp-23" value="name (str)" style="text;strokeColor=none;fillColor=none;align=left;verticalAlign=middle;spacingLeft=4;spacingRight=4;overflow=hidden;points=[[0,0.5],[1,0.5]];portConstraint=eastwest;rotatable=0;whiteSpace=wrap;html=1;" vertex="1" parent="MzCPjj2sB09VvqTOoRSp-21">
          <mxGeometry y="120" width="140" height="30" as="geometry" />
        </mxCell>
        <mxCell id="MzCPjj2sB09VvqTOoRSp-28" value="skill" style="swimlane;fontStyle=0;childLayout=stackLayout;horizontal=1;startSize=30;horizontalStack=0;resizeParent=1;resizeParentMax=0;resizeLast=0;collapsible=1;marginBottom=0;whiteSpace=wrap;html=1;" vertex="1" parent="1">
          <mxGeometry x="-540" y="510" width="140" height="180" as="geometry" />
        </mxCell>
        <mxCell id="MzCPjj2sB09VvqTOoRSp-29" value="&lt;u&gt;id&lt;/u&gt;&amp;nbsp;(int)" style="text;strokeColor=none;fillColor=none;align=left;verticalAlign=middle;spacingLeft=4;spacingRight=4;overflow=hidden;points=[[0,0.5],[1,0.5]];portConstraint=eastwest;rotatable=0;whiteSpace=wrap;html=1;" vertex="1" parent="MzCPjj2sB09VvqTOoRSp-28">
          <mxGeometry y="30" width="140" height="30" as="geometry" />
        </mxCell>
        <mxCell id="MzCPjj2sB09VvqTOoRSp-74" value="component_id (int)" style="text;strokeColor=none;fillColor=none;align=left;verticalAlign=middle;spacingLeft=4;spacingRight=4;overflow=hidden;points=[[0,0.5],[1,0.5]];portConstraint=eastwest;rotatable=0;whiteSpace=wrap;html=1;" vertex="1" parent="MzCPjj2sB09VvqTOoRSp-28">
          <mxGeometry y="60" width="140" height="30" as="geometry" />
        </mxCell>
        <mxCell id="MzCPjj2sB09VvqTOoRSp-30" value="name (str)" style="text;strokeColor=none;fillColor=none;align=left;verticalAlign=middle;spacingLeft=4;spacingRight=4;overflow=hidden;points=[[0,0.5],[1,0.5]];portConstraint=eastwest;rotatable=0;whiteSpace=wrap;html=1;" vertex="1" parent="MzCPjj2sB09VvqTOoRSp-28">
          <mxGeometry y="90" width="140" height="30" as="geometry" />
        </mxCell>
        <mxCell id="MzCPjj2sB09VvqTOoRSp-32" value="description (str)" style="text;strokeColor=none;fillColor=none;align=left;verticalAlign=middle;spacingLeft=4;spacingRight=4;overflow=hidden;points=[[0,0.5],[1,0.5]];portConstraint=eastwest;rotatable=0;whiteSpace=wrap;html=1;" vertex="1" parent="MzCPjj2sB09VvqTOoRSp-28">
          <mxGeometry y="120" width="140" height="30" as="geometry" />
        </mxCell>
        <mxCell id="MzCPjj2sB09VvqTOoRSp-35" value="coefficient (int)" style="text;strokeColor=none;fillColor=none;align=left;verticalAlign=middle;spacingLeft=4;spacingRight=4;overflow=hidden;points=[[0,0.5],[1,0.5]];portConstraint=eastwest;rotatable=0;whiteSpace=wrap;html=1;" vertex="1" parent="MzCPjj2sB09VvqTOoRSp-28">
          <mxGeometry y="150" width="140" height="30" as="geometry" />
        </mxCell>
        <mxCell id="MzCPjj2sB09VvqTOoRSp-36" value="student_skill_mapping" style="swimlane;fontStyle=0;childLayout=stackLayout;horizontal=1;startSize=30;horizontalStack=0;resizeParent=1;resizeParentMax=0;resizeLast=0;collapsible=1;marginBottom=0;whiteSpace=wrap;html=1;" vertex="1" parent="1">
          <mxGeometry x="-750" y="300" width="140" height="210" as="geometry" />
        </mxCell>
        <mxCell id="MzCPjj2sB09VvqTOoRSp-37" value="&lt;u&gt;id&lt;/u&gt;&amp;nbsp;(int)" style="text;strokeColor=none;fillColor=none;align=left;verticalAlign=middle;spacingLeft=4;spacingRight=4;overflow=hidden;points=[[0,0.5],[1,0.5]];portConstraint=eastwest;rotatable=0;whiteSpace=wrap;html=1;" vertex="1" parent="MzCPjj2sB09VvqTOoRSp-36">
          <mxGeometry y="30" width="140" height="30" as="geometry" />
        </mxCell>
        <mxCell id="MzCPjj2sB09VvqTOoRSp-38" value="&lt;font style=&quot;&quot; color=&quot;#007fff&quot;&gt;student_id (int)&lt;/font&gt;" style="text;strokeColor=none;fillColor=none;align=left;verticalAlign=middle;spacingLeft=4;spacingRight=4;overflow=hidden;points=[[0,0.5],[1,0.5]];portConstraint=eastwest;rotatable=0;whiteSpace=wrap;html=1;" vertex="1" parent="MzCPjj2sB09VvqTOoRSp-36">
          <mxGeometry y="60" width="140" height="30" as="geometry" />
        </mxCell>
        <mxCell id="MzCPjj2sB09VvqTOoRSp-76" value="skill_id (int)" style="text;strokeColor=none;fillColor=none;align=left;verticalAlign=middle;spacingLeft=4;spacingRight=4;overflow=hidden;points=[[0,0.5],[1,0.5]];portConstraint=eastwest;rotatable=0;whiteSpace=wrap;html=1;" vertex="1" parent="MzCPjj2sB09VvqTOoRSp-36">
          <mxGeometry y="90" width="140" height="30" as="geometry" />
        </mxCell>
        <mxCell id="MzCPjj2sB09VvqTOoRSp-39" value="value (int)" style="text;strokeColor=none;fillColor=none;align=left;verticalAlign=middle;spacingLeft=4;spacingRight=4;overflow=hidden;points=[[0,0.5],[1,0.5]];portConstraint=eastwest;rotatable=0;whiteSpace=wrap;html=1;" vertex="1" parent="MzCPjj2sB09VvqTOoRSp-36">
          <mxGeometry y="120" width="140" height="30" as="geometry" />
        </mxCell>
        <mxCell id="MzCPjj2sB09VvqTOoRSp-40" value="observation (str)" style="text;strokeColor=none;fillColor=none;align=left;verticalAlign=middle;spacingLeft=4;spacingRight=4;overflow=hidden;points=[[0,0.5],[1,0.5]];portConstraint=eastwest;rotatable=0;whiteSpace=wrap;html=1;" vertex="1" parent="MzCPjj2sB09VvqTOoRSp-36">
          <mxGeometry y="150" width="140" height="30" as="geometry" />
        </mxCell>
        <mxCell id="MzCPjj2sB09VvqTOoRSp-42" value="document (bin)" style="text;strokeColor=none;fillColor=none;align=left;verticalAlign=middle;spacingLeft=4;spacingRight=4;overflow=hidden;points=[[0,0.5],[1,0.5]];portConstraint=eastwest;rotatable=0;whiteSpace=wrap;html=1;" vertex="1" parent="MzCPjj2sB09VvqTOoRSp-36">
          <mxGeometry y="180" width="140" height="30" as="geometry" />
        </mxCell>
        <mxCell id="MzCPjj2sB09VvqTOoRSp-44" value="attendance" style="swimlane;fontStyle=0;childLayout=stackLayout;horizontal=1;startSize=30;horizontalStack=0;resizeParent=1;resizeParentMax=0;resizeLast=0;collapsible=1;marginBottom=0;whiteSpace=wrap;html=1;" vertex="1" parent="1">
          <mxGeometry x="-150" y="220" width="140" height="210" as="geometry" />
        </mxCell>
        <mxCell id="MzCPjj2sB09VvqTOoRSp-45" value="&lt;u&gt;id&lt;/u&gt;&amp;nbsp;(int)" style="text;strokeColor=none;fillColor=none;align=left;verticalAlign=middle;spacingLeft=4;spacingRight=4;overflow=hidden;points=[[0,0.5],[1,0.5]];portConstraint=eastwest;rotatable=0;whiteSpace=wrap;html=1;" vertex="1" parent="MzCPjj2sB09VvqTOoRSp-44">
          <mxGeometry y="30" width="140" height="30" as="geometry" />
        </mxCell>
        <mxCell id="MzCPjj2sB09VvqTOoRSp-48" value="&lt;font color=&quot;#007fff&quot;&gt;tutor_id (int)&lt;/font&gt;" style="text;strokeColor=none;fillColor=none;align=left;verticalAlign=middle;spacingLeft=4;spacingRight=4;overflow=hidden;points=[[0,0.5],[1,0.5]];portConstraint=eastwest;rotatable=0;whiteSpace=wrap;html=1;" vertex="1" parent="MzCPjj2sB09VvqTOoRSp-44">
          <mxGeometry y="60" width="140" height="30" as="geometry" />
        </mxCell>
        <mxCell id="MzCPjj2sB09VvqTOoRSp-47" value="&lt;font color=&quot;#007fff&quot;&gt;student_id (int)&lt;/font&gt;" style="text;strokeColor=none;fillColor=none;align=left;verticalAlign=middle;spacingLeft=4;spacingRight=4;overflow=hidden;points=[[0,0.5],[1,0.5]];portConstraint=eastwest;rotatable=0;whiteSpace=wrap;html=1;" vertex="1" parent="MzCPjj2sB09VvqTOoRSp-44">
          <mxGeometry y="90" width="140" height="30" as="geometry" />
        </mxCell>
        <mxCell id="MzCPjj2sB09VvqTOoRSp-49" value="component_id (int)" style="text;strokeColor=none;fillColor=none;align=left;verticalAlign=middle;spacingLeft=4;spacingRight=4;overflow=hidden;points=[[0,0.5],[1,0.5]];portConstraint=eastwest;rotatable=0;whiteSpace=wrap;html=1;" vertex="1" parent="MzCPjj2sB09VvqTOoRSp-44">
          <mxGeometry y="120" width="140" height="30" as="geometry" />
        </mxCell>
        <mxCell id="MzCPjj2sB09VvqTOoRSp-50" value="status_id (int)" style="text;strokeColor=none;fillColor=none;align=left;verticalAlign=middle;spacingLeft=4;spacingRight=4;overflow=hidden;points=[[0,0.5],[1,0.5]];portConstraint=eastwest;rotatable=0;whiteSpace=wrap;html=1;" vertex="1" parent="MzCPjj2sB09VvqTOoRSp-44">
          <mxGeometry y="150" width="140" height="30" as="geometry" />
        </mxCell>
        <mxCell id="MzCPjj2sB09VvqTOoRSp-46" value="session (int)" style="text;strokeColor=none;fillColor=none;align=left;verticalAlign=middle;spacingLeft=4;spacingRight=4;overflow=hidden;points=[[0,0.5],[1,0.5]];portConstraint=eastwest;rotatable=0;whiteSpace=wrap;html=1;" vertex="1" parent="MzCPjj2sB09VvqTOoRSp-44">
          <mxGeometry y="180" width="140" height="30" as="geometry" />
        </mxCell>
        <mxCell id="MzCPjj2sB09VvqTOoRSp-51" value="group" style="swimlane;fontStyle=0;childLayout=stackLayout;horizontal=1;startSize=30;horizontalStack=0;resizeParent=1;resizeParentMax=0;resizeLast=0;collapsible=1;marginBottom=0;whiteSpace=wrap;html=1;" vertex="1" parent="1">
          <mxGeometry x="-780" y="150" width="140" height="90" as="geometry" />
        </mxCell>
        <mxCell id="MzCPjj2sB09VvqTOoRSp-52" value="&lt;u&gt;id&lt;/u&gt;&amp;nbsp;(int)" style="text;strokeColor=none;fillColor=none;align=left;verticalAlign=middle;spacingLeft=4;spacingRight=4;overflow=hidden;points=[[0,0.5],[1,0.5]];portConstraint=eastwest;rotatable=0;whiteSpace=wrap;html=1;" vertex="1" parent="MzCPjj2sB09VvqTOoRSp-51">
          <mxGeometry y="30" width="140" height="30" as="geometry" />
        </mxCell>
        <mxCell id="MzCPjj2sB09VvqTOoRSp-53" value="name (str)" style="text;strokeColor=none;fillColor=none;align=left;verticalAlign=middle;spacingLeft=4;spacingRight=4;overflow=hidden;points=[[0,0.5],[1,0.5]];portConstraint=eastwest;rotatable=0;whiteSpace=wrap;html=1;" vertex="1" parent="MzCPjj2sB09VvqTOoRSp-51">
          <mxGeometry y="60" width="140" height="30" as="geometry" />
        </mxCell>
        <mxCell id="MzCPjj2sB09VvqTOoRSp-59" value="group_skill_mapping" style="swimlane;fontStyle=0;childLayout=stackLayout;horizontal=1;startSize=30;horizontalStack=0;resizeParent=1;resizeParentMax=0;resizeLast=0;collapsible=1;marginBottom=0;whiteSpace=wrap;html=1;" vertex="1" parent="1">
          <mxGeometry x="-750" y="540" width="140" height="180" as="geometry" />
        </mxCell>
        <mxCell id="MzCPjj2sB09VvqTOoRSp-60" value="&lt;u&gt;id&lt;/u&gt;&amp;nbsp;(int)" style="text;strokeColor=none;fillColor=none;align=left;verticalAlign=middle;spacingLeft=4;spacingRight=4;overflow=hidden;points=[[0,0.5],[1,0.5]];portConstraint=eastwest;rotatable=0;whiteSpace=wrap;html=1;" vertex="1" parent="MzCPjj2sB09VvqTOoRSp-59">
          <mxGeometry y="30" width="140" height="30" as="geometry" />
        </mxCell>
        <mxCell id="MzCPjj2sB09VvqTOoRSp-61" value="skill_id (int)" style="text;strokeColor=none;fillColor=none;align=left;verticalAlign=middle;spacingLeft=4;spacingRight=4;overflow=hidden;points=[[0,0.5],[1,0.5]];portConstraint=eastwest;rotatable=0;whiteSpace=wrap;html=1;" vertex="1" parent="MzCPjj2sB09VvqTOoRSp-59">
          <mxGeometry y="60" width="140" height="30" as="geometry" />
        </mxCell>
        <mxCell id="MzCPjj2sB09VvqTOoRSp-62" value="group_id (int)" style="text;strokeColor=none;fillColor=none;align=left;verticalAlign=middle;spacingLeft=4;spacingRight=4;overflow=hidden;points=[[0,0.5],[1,0.5]];portConstraint=eastwest;rotatable=0;whiteSpace=wrap;html=1;" vertex="1" parent="MzCPjj2sB09VvqTOoRSp-59">
          <mxGeometry y="90" width="140" height="30" as="geometry" />
        </mxCell>
        <mxCell id="MzCPjj2sB09VvqTOoRSp-63" value="coefficient (str)" style="text;strokeColor=none;fillColor=none;align=left;verticalAlign=middle;spacingLeft=4;spacingRight=4;overflow=hidden;points=[[0,0.5],[1,0.5]];portConstraint=eastwest;rotatable=0;whiteSpace=wrap;html=1;" vertex="1" parent="MzCPjj2sB09VvqTOoRSp-59">
          <mxGeometry y="120" width="140" height="30" as="geometry" />
        </mxCell>
        <mxCell id="MzCPjj2sB09VvqTOoRSp-64" value="document (bin)" style="text;strokeColor=none;fillColor=none;align=left;verticalAlign=middle;spacingLeft=4;spacingRight=4;overflow=hidden;points=[[0,0.5],[1,0.5]];portConstraint=eastwest;rotatable=0;whiteSpace=wrap;html=1;" vertex="1" parent="MzCPjj2sB09VvqTOoRSp-59">
          <mxGeometry y="150" width="140" height="30" as="geometry" />
        </mxCell>
        <mxCell id="MzCPjj2sB09VvqTOoRSp-65" style="edgeStyle=orthogonalEdgeStyle;rounded=0;orthogonalLoop=1;jettySize=auto;html=1;" edge="1" parent="1" source="MzCPjj2sB09VvqTOoRSp-57" target="MzCPjj2sB09VvqTOoRSp-52">
          <mxGeometry relative="1" as="geometry" />
        </mxCell>
        <mxCell id="MzCPjj2sB09VvqTOoRSp-67" style="edgeStyle=orthogonalEdgeStyle;rounded=0;orthogonalLoop=1;jettySize=auto;html=1;entryX=0;entryY=0.5;entryDx=0;entryDy=0;exitX=1;exitY=0.5;exitDx=0;exitDy=0;" edge="1" parent="1" source="MzCPjj2sB09VvqTOoRSp-66" target="MzCPjj2sB09VvqTOoRSp-15">
          <mxGeometry relative="1" as="geometry">
            <Array as="points">
              <mxPoint x="-380" y="285" />
              <mxPoint x="-380" y="315" />
            </Array>
          </mxGeometry>
        </mxCell>
        <mxCell id="MzCPjj2sB09VvqTOoRSp-69" style="edgeStyle=orthogonalEdgeStyle;rounded=0;orthogonalLoop=1;jettySize=auto;html=1;entryX=0;entryY=0.5;entryDx=0;entryDy=0;" edge="1" parent="1" source="MzCPjj2sB09VvqTOoRSp-68" target="MzCPjj2sB09VvqTOoRSp-15">
          <mxGeometry relative="1" as="geometry">
            <Array as="points">
              <mxPoint x="-380" y="465" />
              <mxPoint x="-380" y="315" />
            </Array>
          </mxGeometry>
        </mxCell>
        <mxCell id="MzCPjj2sB09VvqTOoRSp-70" style="edgeStyle=orthogonalEdgeStyle;rounded=0;orthogonalLoop=1;jettySize=auto;html=1;entryX=1;entryY=0.5;entryDx=0;entryDy=0;exitX=1;exitY=0.5;exitDx=0;exitDy=0;strokeColor=#007FFF;" edge="1" parent="1" source="MzCPjj2sB09VvqTOoRSp-41" target="MzCPjj2sB09VvqTOoRSp-6">
          <mxGeometry relative="1" as="geometry">
            <Array as="points">
              <mxPoint x="-190" y="495" />
              <mxPoint x="-190" y="195" />
            </Array>
          </mxGeometry>
        </mxCell>
        <mxCell id="MzCPjj2sB09VvqTOoRSp-71" style="edgeStyle=orthogonalEdgeStyle;rounded=0;orthogonalLoop=1;jettySize=auto;html=1;entryX=1;entryY=0.5;entryDx=0;entryDy=0;exitX=0;exitY=0.5;exitDx=0;exitDy=0;" edge="1" parent="1" source="MzCPjj2sB09VvqTOoRSp-49" target="MzCPjj2sB09VvqTOoRSp-22">
          <mxGeometry relative="1" as="geometry">
            <mxPoint x="-120" y="540" as="sourcePoint" />
            <Array as="points">
              <mxPoint x="-170" y="355" />
              <mxPoint x="-170" y="435" />
            </Array>
          </mxGeometry>
        </mxCell>
        <mxCell id="MzCPjj2sB09VvqTOoRSp-72" style="edgeStyle=orthogonalEdgeStyle;rounded=0;orthogonalLoop=1;jettySize=auto;html=1;strokeColor=#007FFF;exitX=0;exitY=0.5;exitDx=0;exitDy=0;" edge="1" parent="1" source="MzCPjj2sB09VvqTOoRSp-48" target="MzCPjj2sB09VvqTOoRSp-6">
          <mxGeometry relative="1" as="geometry">
            <Array as="points">
              <mxPoint x="-190" y="295" />
              <mxPoint x="-190" y="195" />
            </Array>
          </mxGeometry>
        </mxCell>
        <mxCell id="MzCPjj2sB09VvqTOoRSp-73" style="edgeStyle=orthogonalEdgeStyle;rounded=0;orthogonalLoop=1;jettySize=auto;html=1;strokeColor=#007FFF;exitX=0;exitY=0.5;exitDx=0;exitDy=0;" edge="1" parent="1" source="MzCPjj2sB09VvqTOoRSp-47" target="MzCPjj2sB09VvqTOoRSp-6">
          <mxGeometry relative="1" as="geometry">
            <Array as="points">
              <mxPoint x="-190" y="325" />
              <mxPoint x="-190" y="195" />
            </Array>
          </mxGeometry>
        </mxCell>
        <mxCell id="MzCPjj2sB09VvqTOoRSp-75" style="edgeStyle=orthogonalEdgeStyle;rounded=0;orthogonalLoop=1;jettySize=auto;html=1;entryX=0;entryY=0.5;entryDx=0;entryDy=0;" edge="1" parent="1" source="MzCPjj2sB09VvqTOoRSp-74" target="MzCPjj2sB09VvqTOoRSp-22">
          <mxGeometry relative="1" as="geometry">
            <Array as="points">
              <mxPoint x="-370" y="585" />
              <mxPoint x="-370" y="435" />
            </Array>
          </mxGeometry>
        </mxCell>
        <mxCell id="MzCPjj2sB09VvqTOoRSp-77" style="edgeStyle=orthogonalEdgeStyle;rounded=0;orthogonalLoop=1;jettySize=auto;html=1;entryX=0;entryY=0.5;entryDx=0;entryDy=0;" edge="1" parent="1" source="MzCPjj2sB09VvqTOoRSp-76" target="MzCPjj2sB09VvqTOoRSp-29">
          <mxGeometry relative="1" as="geometry" />
        </mxCell>
        <mxCell id="MzCPjj2sB09VvqTOoRSp-79" style="edgeStyle=orthogonalEdgeStyle;rounded=0;orthogonalLoop=1;jettySize=auto;html=1;entryX=0;entryY=0.5;entryDx=0;entryDy=0;" edge="1" parent="1" source="MzCPjj2sB09VvqTOoRSp-61" target="MzCPjj2sB09VvqTOoRSp-29">
          <mxGeometry relative="1" as="geometry" />
        </mxCell>
        <mxCell id="MzCPjj2sB09VvqTOoRSp-80" style="edgeStyle=orthogonalEdgeStyle;rounded=0;orthogonalLoop=1;jettySize=auto;html=1;entryX=0;entryY=0.5;entryDx=0;entryDy=0;" edge="1" parent="1" source="MzCPjj2sB09VvqTOoRSp-62" target="MzCPjj2sB09VvqTOoRSp-52">
          <mxGeometry relative="1" as="geometry" />
        </mxCell>
        <mxCell id="MzCPjj2sB09VvqTOoRSp-81" style="edgeStyle=orthogonalEdgeStyle;rounded=0;orthogonalLoop=1;jettySize=auto;html=1;entryX=0;entryY=0.5;entryDx=0;entryDy=0;strokeColor=#007FFF;" edge="1" parent="1" source="MzCPjj2sB09VvqTOoRSp-38" target="MzCPjj2sB09VvqTOoRSp-6">
          <mxGeometry relative="1" as="geometry" />
        </mxCell>
        <mxCell id="MzCPjj2sB09VvqTOoRSp-83" value="status" style="swimlane;fontStyle=0;childLayout=stackLayout;horizontal=1;startSize=30;horizontalStack=0;resizeParent=1;resizeParentMax=0;resizeLast=0;collapsible=1;marginBottom=0;whiteSpace=wrap;html=1;" vertex="1" parent="1">
          <mxGeometry x="40" y="220" width="140" height="90" as="geometry" />
        </mxCell>
        <mxCell id="MzCPjj2sB09VvqTOoRSp-84" value="&lt;u&gt;id&lt;/u&gt;&amp;nbsp;(int)" style="text;strokeColor=none;fillColor=none;align=left;verticalAlign=middle;spacingLeft=4;spacingRight=4;overflow=hidden;points=[[0,0.5],[1,0.5]];portConstraint=eastwest;rotatable=0;whiteSpace=wrap;html=1;" vertex="1" parent="MzCPjj2sB09VvqTOoRSp-83">
          <mxGeometry y="30" width="140" height="30" as="geometry" />
        </mxCell>
        <mxCell id="MzCPjj2sB09VvqTOoRSp-85" value="value (str)" style="text;strokeColor=none;fillColor=none;align=left;verticalAlign=middle;spacingLeft=4;spacingRight=4;overflow=hidden;points=[[0,0.5],[1,0.5]];portConstraint=eastwest;rotatable=0;whiteSpace=wrap;html=1;" vertex="1" parent="MzCPjj2sB09VvqTOoRSp-83">
          <mxGeometry y="60" width="140" height="30" as="geometry" />
        </mxCell>
        <mxCell id="MzCPjj2sB09VvqTOoRSp-90" style="edgeStyle=orthogonalEdgeStyle;rounded=0;orthogonalLoop=1;jettySize=auto;html=1;entryX=0;entryY=0.5;entryDx=0;entryDy=0;" edge="1" parent="1" source="MzCPjj2sB09VvqTOoRSp-50" target="MzCPjj2sB09VvqTOoRSp-84">
          <mxGeometry relative="1" as="geometry" />
        </mxCell>
      </root>
    </mxGraphModel>
  </diagram>
</mxfile>
